<?xml version="1.0" encoding="UTF-8"?>
<svg version="1.1" xmlns="http://www.w3.org/2000/svg" width="512" height="512">
<path d="M0 0 C1.20885864 0.28496338 1.20885864 0.28496338 2.44213867 0.57568359 C6.25178903 1.5461499 8.68571734 2.27261055 11.1875 5.3125 C12.2943116 7.23575104 13.33743428 9.19610913 14.33984375 11.17578125 C14.78380745 12.04491653 14.78380745 12.04491653 15.23674011 12.93161011 C15.87272709 14.17750079 16.50623899 15.42465743 17.13751221 16.67294312 C18.81492721 19.98884184 20.51084001 23.29523878 22.20703125 26.6015625 C22.54696106 27.26490097 22.88689087 27.92823944 23.23712158 28.61167908 C26.16021505 34.29835666 29.21381497 39.90717474 32.3125 45.5 C52.21993369 81.70511155 65.67110541 117.05969864 70.9375 158.125 C71.12928833 159.61930542 71.12928833 159.61930542 71.32495117 161.14379883 C73.05726858 175.50338135 73.05726858 175.50338135 70.625 180.5625 C66.47156197 184.84249708 60.13540648 185.46098366 54.53857422 186.74560547 C50.07270996 187.82242134 45.66532915 189.1094796 41.25 190.375 C40.37472656 190.62056641 39.49945313 190.86613281 38.59765625 191.11914062 C37.32921875 191.47975586 37.32921875 191.47975586 36.03515625 191.84765625 C34.9215271 192.16295288 34.9215271 192.16295288 33.78540039 192.48461914 C31.04269347 193.28924413 31.04269347 193.28924413 28.05808258 194.84169483 C21.24945367 197.37757444 13.82146937 196.7142415 6.66027832 196.67326355 C4.96220426 196.67457253 3.26413079 196.67720064 1.56606054 196.68103105 C-3.09058788 196.68772987 -7.74702877 196.67575161 -12.40365076 196.66069686 C-17.42877849 196.6477321 -22.45389467 196.65212628 -27.47903442 196.65440369 C-36.18227405 196.65597614 -44.88544617 196.64656982 -53.58866882 196.62969017 C-66.17203154 196.60530099 -78.75536163 196.59749498 -91.33874542 196.5937262 C-111.75482013 196.58716159 -132.17085888 196.56720016 -152.58691406 196.53881836 C-172.41829244 196.51127804 -192.24966104 196.49004432 -212.08105469 196.47729492 C-213.30362109 196.47650675 -214.52618749 196.47571858 -215.78580135 196.47490653 C-221.91910543 196.47099139 -228.05240958 196.46720027 -234.18571377 196.46347082 C-285.06133404 196.43237462 -335.93691527 196.37953855 -386.8125 196.3125 C-385.49888303 192.26741351 -384.0523499 188.60145134 -382.046875 184.84765625 C-381.49386719 183.81205566 -380.94085938 182.77645508 -380.37109375 181.70947266 C-379.77425781 180.60909668 -379.17742187 179.5087207 -378.5625 178.375 C-377.93988281 177.22563965 -377.31726563 176.0762793 -376.67578125 174.89208984 C-358.94771894 142.36260928 -337.79934992 112.63418672 -312.8125 85.3125 C-311.83057843 84.22539655 -310.84881673 83.13814868 -309.8671875 82.05078125 C-305.07881913 76.77271054 -300.33073999 71.61631777 -294.8515625 67.0390625 C-292.36799371 64.93611728 -290.00699194 62.71724322 -287.625 60.5 C-281.63356076 55.05099559 -275.32358587 50.11420645 -268.8125 45.3125 C-268.18633789 44.84585938 -267.56017578 44.37921875 -266.91503906 43.8984375 C-227.69431035 14.80859607 -181.1304929 -3.27131223 -132.8125 -9.6875 C-131.95398438 -9.80464355 -131.09546875 -9.92178711 -130.2109375 -10.04248047 C-86.70660178 -15.70780902 -42.38813966 -10.1838817 0 0 Z M-253.4375 95.4375 C-258.66604885 100.9398411 -263.13137187 106.53533493 -264.5 114.125 C-263.59936839 118.30065563 -262.19081309 119.74204439 -258.8125 122.3125 C-251.6803412 125.41343861 -244.06715309 125.46183242 -236.41845703 125.45776367 C-235.04338486 125.46280159 -235.04338486 125.46280159 -233.64053345 125.46794128 C-230.61711251 125.47741592 -227.59374736 125.47939385 -224.5703125 125.48046875 C-222.44302346 125.48368797 -220.31573464 125.48705253 -218.18844604 125.49055481 C-213.72149139 125.49654043 -209.25455604 125.49839571 -204.78759766 125.49780273 C-200.25305142 125.49772199 -195.71860729 125.50457953 -191.18408203 125.51831055 C-114.25192472 126.57790527 -114.25192472 126.57790527 -48.8125 90.3125 C-48.16410156 89.67699219 -47.51570312 89.04148438 -46.84765625 88.38671875 C-38.80658767 79.88817143 -34.39552434 69.76880478 -34.53515625 58.1328125 C-35.09188291 52.4714513 -37.53143473 48.83592897 -41.125 44.5625 C-94.36055853 4.6358311 -212.79912045 56.67940368 -253.4375 95.4375 Z " fill="#000000" transform="translate(422.8125,159.6875)"/>
<path d="M0 0 C129.69 0 259.38 0 393 0 C392.34 1.32 391.68 2.64 391 4 C390.34 4 389.68 4 389 4 C388.61328125 4.86044922 388.61328125 4.86044922 388.21875 5.73828125 C386.39557919 9.12166555 383.8401684 11.7975875 381.32072449 14.68545914 C379.42312573 17.11350301 378.50173539 19.26839125 377.63496399 22.2168541 C375.84666818 27.53748288 373.69594043 31.73147386 369 35 C358.48299549 38.20680283 346.70009066 37.21883482 335.82686877 37.0170927 C331.18749391 36.94966264 326.54863168 36.98080046 321.90895081 36.99966431 C312.8299115 37.02127665 303.7536654 36.95306449 294.67521435 36.85529914 C284.10744242 36.74538907 273.54015235 36.72925384 262.97189069 36.71814701 C244.12371215 36.69558879 225.27677961 36.59497527 206.42919922 36.44726562 C188.12873094 36.30397097 169.82881465 36.20491322 151.52783203 36.16015625 C150.39951875 36.15738616 149.27120547 36.15461607 148.10870087 36.15176204 C143.57375499 36.14074856 139.03880878 36.12988633 134.50386196 36.11926283 C114.97058161 36.0725199 95.4374179 35.99187665 75.90428209 35.90454614 C72.73772262 35.89057081 69.57116091 35.87724558 66.40459824 35.86401844 C55.32742932 35.81680218 44.25045798 35.75881521 33.17351991 35.67222849 C28.59205221 35.63641779 24.0106822 35.6050744 19.42910957 35.58640671 C15.24110214 35.56906445 11.05344423 35.5378372 6.86562121 35.49508044 C5.34506919 35.4819334 3.82446371 35.47386265 2.30385721 35.47118881 C0.24821114 35.46675221 -1.80736337 35.44229496 -3.862854 35.41662979 C-5.00798588 35.40855372 -6.15311775 35.40047764 -7.33295059 35.39215684 C-8.2130769 35.26274508 -9.0932032 35.13333333 -10 35 C-12 32 -12 32 -11 25 C-7.37 16.75 -3.74 8.5 0 0 Z " fill="#000000" transform="translate(29,369)"/>
<path d="M0 0 C4.84830324 2.81878095 7.37422743 6.73113496 9 12 C9.73175864 16.17915493 9.94241713 19.84369883 9 24 C6.89434111 26.665391 4.05072439 27.62759892 1 29 C-0.9419453 30.0367294 -2.8603813 31.1096938 -4.77734375 32.19189453 C-6.18236378 32.98434414 -7.59397579 33.76521195 -9.01171875 34.53466797 C-13.11110866 36.78686062 -16.47943402 39.20366122 -20 42.3125 C-23.21830342 44.6350423 -24.51873307 45.03886337 -28.53125 44.71484375 C-32.01283851 43.96436607 -35.36776753 42.88411018 -38.73828125 41.7421875 C-41.97428044 40.68028794 -45.25403809 39.80392987 -48.54101562 38.91503906 C-52.0349831 37.97008598 -55.51676564 36.98369119 -59 36 C-56.9628063 31.41646754 -53.91041301 29.08671647 -50.0625 26 C-49.00591187 25.1488562 -49.00591187 25.1488562 -47.92797852 24.28051758 C-39.7272904 17.81233132 -30.98146517 12.30871142 -22 7 C-21.2776416 6.566875 -20.5552832 6.13375 -19.81103516 5.6875 C-17.80415858 4.49520387 -15.7827971 3.33492622 -13.75 2.1875 C-12.61046875 1.54167969 -11.4709375 0.89585938 -10.296875 0.23046875 C-6.35191455 -1.24188023 -4.0536462 -0.99511892 0 0 Z " fill="#000000" transform="translate(472,109)"/>
<path d="M0 0 C0.99501022 -0.01283524 1.99002045 -0.02567047 3.0151825 -0.03889465 C4.09016495 -0.04628159 5.1651474 -0.05366852 6.27270508 -0.0612793 C7.38148514 -0.06935104 8.4902652 -0.07742279 9.63264465 -0.08573914 C11.98213132 -0.09957755 14.33163808 -0.11030079 16.68115234 -0.11816406 C20.26089008 -0.13534758 23.83969727 -0.17923395 27.41918945 -0.22338867 C29.70368788 -0.2335184 31.98819415 -0.24203362 34.27270508 -0.2487793 C35.86999702 -0.27504143 35.86999702 -0.27504143 37.4995575 -0.30183411 C44.60504057 -0.28126805 50.26799933 0.69293682 55.65983582 5.5891571 C58.44789011 8.66550453 59.45865537 11.15769828 60.10473633 15.17700195 C57.60530429 15.65929527 55.1052539 16.13789621 52.60473633 16.61450195 C51.90864258 16.74920898 51.21254883 16.88391602 50.49536133 17.02270508 C27.68300507 21.35282826 4.21638331 20.29912674 -18.89526367 20.17700195 C-18.12834252 12.78874173 -16.62870052 8.41071562 -10.83276367 3.36450195 C-7.07079235 0.56303395 -4.55974449 0.05128673 0 0 Z " fill="#000000" transform="translate(254.895263671875,251.822998046875)"/>
</svg>
